<?xml version="1.0" standalone="no"?>
<!DOCTYPE svg PUBLIC "-//W3C//DTD SVG 20010904//EN"
 "http://www.w3.org/TR/2001/REC-SVG-20010904/DTD/svg10.dtd">
<svg version="1.0" xmlns="http://www.w3.org/2000/svg"
 width="512.000000pt" height="512.000000pt" viewBox="0 0 512.000000 512.000000"
 preserveAspectRatio="xMidYMid meet">

<g transform="translate(0.000000,512.000000) scale(0.100000,-0.100000)"
fill="#000000" stroke="none">
<path d="M1036 5099 c-36 -28 -36 -80 0 -108 l27 -21 1663 0 1663 0 58 -22
c80 -29 162 -112 192 -193 19 -49 22 -74 19 -136 -7 -129 -70 -224 -186 -281
l-67 -33 -1683 -5 c-1652 -5 -1684 -5 -1698 -24 -8 -11 -14 -34 -14 -52 0 -69
-136 -64 1715 -64 1362 0 1679 3 1720 14 294 78 442 398 310 671 -67 140 -208
243 -360 265 -44 6 -686 10 -1701 10 l-1631 0 -27 -21z"/>
<path d="M2672 3757 c-20 -21 -22 -34 -22 -144 0 -119 0 -122 26 -142 35 -27
59 -26 89 4 24 23 25 30 25 143 0 111 -1 120 -23 140 -30 28 -68 28 -95 -1z"/>
<path d="M2945 3755 c-24 -23 -25 -30 -25 -140 0 -110 1 -117 25 -140 30 -30
54 -31 89 -4 26 20 26 22 26 145 0 111 -2 126 -20 144 -27 27 -66 25 -95 -5z"/>
<path d="M3220 3760 c-18 -18 -20 -33 -20 -144 0 -123 0 -125 26 -145 35 -27
59 -26 89 4 24 23 25 30 25 140 0 110 -1 117 -25 140 -29 30 -68 32 -95 5z"/>
<path d="M3710 2625 l0 -455 680 0 680 0 0 455 0 455 -680 0 -680 0 0 -455z
m977 53 c30 -28 30 -74 1 -105 -21 -23 -22 -23 -300 -23 -265 0 -279 1 -298
20 -12 12 -20 33 -20 55 0 22 8 43 20 55 19 19 33 20 297 20 270 0 277 0 300
-22z"/>
</g>
</svg>
