<?xml version="1.0" standalone="no"?>
<!DOCTYPE svg PUBLIC "-//W3C//DTD SVG 20010904//EN"
 "http://www.w3.org/TR/2001/REC-SVG-20010904/DTD/svg10.dtd">
<svg version="1.0" xmlns="http://www.w3.org/2000/svg"
 width="512.000000pt" height="512.000000pt" viewBox="0 0 512.000000 512.000000"
 preserveAspectRatio="xMidYMid meet">

<g transform="translate(0.000000,512.000000) scale(0.100000,-0.100000)"
fill="#000000" stroke="none">
<path d="M1200 3463 l0 -1660 158 -6 c192 -7 309 -34 457 -106 309 -152 524
-436 580 -769 11 -65 13 163 14 1433 1 974 -3 1542 -9 1600 -40 343 -165 621
-374 831 -101 100 -172 152 -291 211 -138 69 -277 106 -443 119 l-92 7 0
-1660z"/>
<path d="M600 2711 l0 -1810 563 -4 c627 -4 640 -6 853 -82 l95 -34 -7 57
c-32 264 -220 507 -471 607 -114 46 -193 55 -473 55 l-260 0 0 1510 0 1510
-150 0 -150 0 0 -1809z"/>
<path d="M3390 4209 c-191 -22 -410 -87 -578 -172 l-103 -52 1 -1685 c0 -926
2 -1685 3 -1686 1 -2 41 22 87 52 152 100 310 166 471 198 163 33 265 38 757
37 l492 -1 0 1660 0 1660 -527 -1 c-291 -1 -562 -5 -603 -10z"/>
<path d="M0 2110 l0 -1810 798 0 c495 0 822 -4 862 -10 177 -28 361 -122 480
-244 l44 -46 376 0 376 0 49 50 c92 94 225 172 372 217 l88 28 838 3 837 3 0
1659 0 1660 -150 0 -150 0 0 -1510 0 -1510 -652 0 c-708 0 -762 -3 -928 -55
-108 -34 -252 -108 -358 -185 l-83 -60 -237 0 -237 0 -95 66 c-118 82 -239
143 -350 178 -166 53 -219 56 -927 56 l-653 0 0 1660 0 1660 -150 0 -150 0 0
-1810z"/>
</g>
</svg>
