<?xml version="1.0" standalone="no"?>
<!DOCTYPE svg PUBLIC "-//W3C//DTD SVG 20010904//EN"
 "http://www.w3.org/TR/2001/REC-SVG-20010904/DTD/svg10.dtd">
<svg version="1.0" xmlns="http://www.w3.org/2000/svg"
 width="512.000000pt" height="512.000000pt" viewBox="0 0 512.000000 512.000000"
 preserveAspectRatio="xMidYMid meet">

<g transform="translate(0.000000,512.000000) scale(0.100000,-0.100000)"
fill="#000000" stroke="none">
<path d="M1046 5097 c-80 -46 -76 4 -76 -852 l0 -760 23 -40 c20 -36 41 -49
232 -147 l210 -107 -427 -1 c-279 0 -445 -4 -480 -11 -172 -37 -310 -175 -347
-347 -16 -75 -16 -1989 0 -2064 28 -130 112 -241 226 -301 89 -46 148 -57 298
-57 l123 0 17 -49 c48 -145 180 -274 341 -333 85 -31 263 -31 348 0 161 59
293 188 341 333 l17 49 668 0 668 0 17 -49 c48 -145 180 -274 341 -333 85 -31
263 -31 348 0 161 59 293 188 341 333 l17 49 123 0 c145 0 208 11 289 52 116
58 208 179 235 306 7 35 11 221 11 540 l0 487 -25 43 c-14 24 -203 330 -422
679 -353 565 -400 636 -434 654 -37 18 -65 19 -691 19 l-653 1 210 107 c191
98 212 111 232 147 l23 40 0 758 c0 740 0 759 -20 797 -23 45 -80 80 -131 80
-22 0 -179 -75 -495 -235 l-463 -236 -464 236 c-339 172 -473 235 -498 235
-19 0 -52 -10 -73 -23z m559 -543 l325 -166 0 -549 c0 -302 -2 -549 -5 -549
-3 0 -151 73 -330 162 l-325 163 0 552 c0 304 2 553 5 553 3 0 152 -75 330
-166z m1285 -389 l0 -554 -322 -161 c-176 -88 -325 -160 -330 -160 -4 0 -8
247 -8 549 l0 549 323 165 c177 91 325 166 330 166 4 1 7 -249 7 -554z m0
-1855 c0 -562 1 -582 20 -620 13 -26 34 -47 60 -60 38 -20 57 -20 860 -20
l820 0 0 -391 c0 -387 0 -392 -22 -431 -37 -65 -75 -78 -222 -78 l-124 0 -7
29 c-9 42 -69 139 -118 190 -57 60 -145 115 -225 143 -95 32 -249 32 -344 0
-80 -28 -168 -83 -225 -143 -49 -51 -109 -148 -118 -190 l-7 -29 -678 0 -678
0 -7 29 c-9 42 -69 139 -118 190 -57 60 -145 115 -225 143 -95 32 -249 32
-344 0 -80 -28 -168 -83 -225 -143 -49 -51 -109 -148 -118 -190 l-7 -29 -124
0 c-149 0 -191 15 -224 80 -20 39 -20 56 -20 1012 1 1094 -5 1015 76 1064 l39
24 1153 0 1152 0 0 -580z m1333 90 l306 -490 -670 0 -669 0 0 490 0 490 363 0
363 0 307 -490z m-2778 -1617 c92 -31 165 -134 165 -233 0 -132 -118 -250
-250 -250 -60 0 -130 30 -175 75 -98 98 -98 252 0 350 69 70 164 91 260 58z
m2400 0 c92 -31 165 -134 165 -233 0 -132 -118 -250 -250 -250 -60 0 -130 30
-175 75 -98 98 -98 252 0 350 69 70 164 91 260 58z"/>
<path d="M886 2526 c-100 -60 -98 -204 4 -256 36 -19 58 -20 310 -20 252 0
274 1 310 20 45 23 80 80 80 130 0 50 -35 107 -80 130 -36 19 -58 20 -312 20
-269 0 -274 0 -312 -24z"/>
<path d="M886 1886 c-100 -60 -99 -197 2 -254 39 -22 43 -22 471 -22 413 0
434 1 471 20 45 23 80 80 80 130 0 50 -35 107 -80 130 -37 19 -58 20 -472 20
l-433 0 -39 -24z"/>
</g>
</svg>
